<?xml version="1.0" standalone="no"?>
<!DOCTYPE svg PUBLIC "-//W3C//DTD SVG 20010904//EN"
 "http://www.w3.org/TR/2001/REC-SVG-20010904/DTD/svg10.dtd">
<svg version="1.0" xmlns="http://www.w3.org/2000/svg"
 width="319.000000pt" height="319.000000pt" viewBox="0 0 319.000000 319.000000"
 preserveAspectRatio="xMidYMid meet">
<metadata>
Created by potrace 1.14, written by Peter Selinger 2001-2017
</metadata>
<g transform="translate(0.000000,319.000000) scale(0.100000,-0.100000)"
fill="#000000" stroke="none">
<path d="M1723 3169 c-24 -9 -35 -36 -33 -77 4 -49 4 -49 -82 -50 -79 0 -154
-6 -208 -16 -14 -3 -43 -8 -65 -11 -51 -7 -163 -39 -235 -66 -64 -24 -193 -81
-200 -89 -5 -5 -38 -25 -75 -44 -12 -6 -45 -29 -75 -51 -272 -198 -478 -481
-568 -780 -51 -172 -65 -264 -66 -445 -1 -109 -4 -138 -17 -150 -59 -57 -42
-153 43 -245 16 -16 33 -48 39 -70 7 -22 18 -54 25 -72 8 -17 14 -34 14 -38 0
-14 74 -160 84 -167 6 -4 7 -8 2 -8 -5 0 -3 -8 5 -17 8 -10 20 -29 28 -43 38
-69 161 -218 245 -297 170 -161 338 -262 556 -336 108 -36 142 -46 195 -54 17
-2 41 -6 55 -9 100 -20 302 -25 410 -10 239 32 465 115 662 243 73 48 215 167
263 222 16 19 38 43 49 55 153 173 289 448 332 671 2 11 6 31 9 45 26 113 26
398 0 533 -3 15 -7 37 -9 50 -15 88 -70 245 -121 350 -41 82 -132 229 -180
287 -50 62 -237 239 -291 275 -32 22 -61 42 -64 45 -5 5 -16 11 -89 52 -20 11
-42 25 -48 30 -7 6 -13 7 -13 3 0 -4 -6 -2 -13 4 -14 11 -149 69 -177 76 -8 2
-45 13 -82 24 -38 11 -68 18 -68 16 0 -19 -113 57 -149 99 -55 65 -66 73 -88
65z"/>
</g>
</svg>
